<svg xmlns="http://www.w3.org/2000/svg" width="68" height="68" viewBox="0 0 68 68" fill="none">
<path d="M36.6415 49.3517L36.2896 49.5437L35.9552 49.7507C32.2591 52.0278 30.637 56.6691 32.0944 60.7518L32.2217 61.1334L32.3814 61.4851C34.1683 65.478 38.4608 67.6877 42.7532 66.8422L43.1525 66.7474L43.5344 66.6527L43.0877 66.7799L42.6409 66.8921L42.1792 67.0043C39.3567 67.7326 36.2696 68.0543 33.3547 67.992H32.893L32.4139 67.9595C29.8434 67.7376 28.1089 67.9121 26.0325 66.301L25.778 66.109L25.5384 65.9169L25.2838 65.7099C20.2002 61.2082 16.5292 53.4494 15.5509 46.8477L15.471 46.3215L15.3912 45.7803L15.6782 45.9075L15.9801 46.0197C18.6804 47.0223 21.6128 47.4238 24.4678 47.6932L25.2489 47.758L26.0475 47.8229C29.9207 48.0798 33.784 48.0673 37.6622 48.0623L38.3485 48.0473H39.0023L37.8543 48.7182L36.6415 49.3567" fill="url(#paint0_linear_23_924)"/>
<path d="M39.3391 0.416815L39.5463 0.464201L39.7534 0.511587C42.2291 1.23236 44.8195 4.17529 46.2795 6.18796L46.534 6.53962L46.7736 6.89127C49.6161 11.0014 51.68 16.0194 52.4686 20.955L52.6283 22.0075L52.3413 21.8953L52.0543 21.783C49.3341 20.8129 46.4417 20.4637 43.5817 20.1894L42.8006 20.1245L42.002 20.0771C38.1712 19.8576 34.3329 19.8427 30.4971 19.8851H29.1719L29.7135 19.5658L30.255 19.2641L30.829 18.9623C32.556 18.1418 34.1108 16.8898 35.0891 15.2313L35.3286 14.8497L35.5358 14.4506C36.4292 12.5627 36.7187 10.4727 36.2845 8.4226L36.1896 8.02355L36.0773 7.62451L35.965 7.24293C34.3778 2.83601 29.8982 0.267174 25.2912 1.16751L24.8919 1.26229L24.5101 1.35706L24.9568 1.22986C29.4315 -0.00966173 34.3029 -0.331389 38.8924 0.35197L39.3391 0.416815Z" fill="url(#paint1_linear_23_924)"/>
<path d="M39.3392 0.416992L39.5313 0.449414L39.7235 0.496801L39.9157 0.561645L40.1078 0.626489C43.2947 1.88597 46.3419 5.98612 48.0215 8.83927L48.2461 9.2059L48.6603 9.9541C51.9146 15.9547 53.6591 23.0926 52.5061 29.9012L52.4113 30.395L52.3164 30.9063L52.2041 31.4001L52.0769 31.8939C50.29 38.8772 45.411 44.2069 39.3292 47.8556L38.6903 48.2372L38.0365 48.6188L37.3502 48.9854C35.164 50.0304 33.6192 51.3797 32.5161 53.5619L32.3414 53.961L32.1667 54.3924C31.3457 56.642 31.3806 58.9016 32.2316 61.1362L32.3913 61.4879L32.566 61.8545L32.7582 62.2211L32.9653 62.5728L33.1899 62.9244L33.4445 63.2761L33.6991 63.6103L33.986 63.9445C35.5234 65.628 37.5473 66.6779 39.8108 66.9573L40.2576 67.0046L40.6893 67.0196C43.5144 67.057 46.1822 65.7801 48.7152 64.6752L49.2743 64.4034L49.8483 64.1166L50.4073 63.8148C57.1555 60.0987 62.4162 54.2652 65.406 47.1673L65.6456 46.5762L65.8852 45.9701L66.1098 45.3641C72.8555 26.1003 61.4579 5.39754 41.5079 0.830998L40.7891 0.671382L40.0554 0.544187L39.3367 0.416992" fill="url(#paint2_linear_23_924)"/>
<path d="M28.7128 67.5789L28.5206 67.5465L28.3285 67.4991L28.1363 67.4517L27.9441 67.3869C24.7273 66.085 21.74 62.0597 20.0305 59.1741L19.8059 58.8075L19.3916 58.0418C16.1298 52.0587 14.4004 44.9058 15.5459 38.1097L15.6407 37.5984L15.7355 37.1046L15.8478 36.6108L15.9751 36.0995C17.8069 29.0838 22.606 23.8364 28.7228 20.1553L29.3617 19.7737L30.033 19.3921L30.7043 19.0255C32.8855 17.988 34.4328 16.6163 35.5383 14.449L35.8902 13.6209C36.7013 11.4287 36.6888 9.04942 35.8253 6.87713L35.6656 6.51051L35.4909 6.14389L35.2988 5.79223L35.0916 5.42561L34.867 5.07396L34.6274 4.73976L34.3554 4.40556L34.0684 4.07137C32.5012 2.35798 30.5471 1.35289 28.2436 1.0586L27.8119 1.01121L27.3652 0.996247C24.8795 0.876534 21.5628 2.32057 19.3392 3.34062L18.7802 3.61247L18.2212 3.89928L17.6622 4.20105C10.9364 7.86476 5.61825 13.7731 2.65844 20.8436L2.41886 21.4347L2.17928 22.0407L1.95467 22.6468C-4.80598 41.918 6.59404 62.5959 26.5416 67.1824L27.2753 67.327L27.9941 67.4717L28.7128 67.5839" fill="url(#paint3_linear_23_924)"/>
<defs>
<linearGradient id="paint0_linear_23_924" x1="15.3887" y1="56.8886" x2="43.5344" y2="56.8886" gradientUnits="userSpaceOnUse">
<stop stop-color="#001A5C"/>
<stop offset="0.06" stop-color="#052270"/>
<stop offset="0.21" stop-color="#10359C"/>
<stop offset="0.36" stop-color="#1944BF"/>
<stop offset="0.52" stop-color="#204FDB"/>
<stop offset="0.67" stop-color="#2558EF"/>
<stop offset="0.82" stop-color="#285DFB"/>
<stop offset="0.98" stop-color="#295FFF"/>
</linearGradient>
<linearGradient id="paint1_linear_23_924" x1="24.5151" y1="11.0039" x2="52.6308" y2="11.0039" gradientUnits="userSpaceOnUse">
<stop offset="0.02" stop-color="#295FFF"/>
<stop offset="0.18" stop-color="#285DFB"/>
<stop offset="0.33" stop-color="#2558EF"/>
<stop offset="0.48" stop-color="#204FDB"/>
<stop offset="0.64" stop-color="#1944BF"/>
<stop offset="0.79" stop-color="#10359C"/>
<stop offset="0.94" stop-color="#052270"/>
<stop offset="1" stop-color="#001A5C"/>
</linearGradient>
<linearGradient id="paint2_linear_23_924" x1="45.1814" y1="66.1916" x2="56.9211" y2="0.628838" gradientUnits="userSpaceOnUse">
<stop offset="0.04" stop-color="#76D9F6"/>
<stop offset="0.33" stop-color="#54BDF4"/>
<stop offset="0.95" stop-color="#007AF1"/>
</linearGradient>
<linearGradient id="paint3_linear_23_924" x1="11.443" y1="66.4167" x2="22.6443" y2="0.771872" gradientUnits="userSpaceOnUse">
<stop offset="0.05" stop-color="#007AF1"/>
<stop offset="0.63" stop-color="#54BDF4"/>
<stop offset="0.91" stop-color="#76D9F6"/>
</linearGradient>
</defs>
</svg>